<mxfile host="65bd71144e">
    <diagram id="XalZgKRbhxkLiWZ0FFo6" name="Page-1">
        <mxGraphModel dx="1103" dy="779" grid="1" gridSize="10" guides="1" tooltips="1" connect="1" arrows="1" fold="1" page="1" pageScale="1" pageWidth="1169" pageHeight="827" math="0" shadow="0">
            <root>
                <mxCell id="0"/>
                <mxCell id="1" parent="0"/>
                <mxCell id="2" value="3DR&#10;Telemetry" style="rounded=1;fillColor=#76608a;fontColor=#ffffff;strokeColor=#432D57;fontSize=16;" parent="1" vertex="1">
                    <mxGeometry x="250" y="330" width="110" height="80" as="geometry"/>
                </mxCell>
                <mxCell id="3" value="Telemetry&#10;Receive&#10;Driver" style="rounded=1;fillColor=#60a917;fontColor=#ffffff;strokeColor=#2D7600;fontSize=16;" parent="1" vertex="1">
                    <mxGeometry x="440" y="210" width="110" height="80" as="geometry"/>
                </mxCell>
                <mxCell id="4" value="Decrypt" style="rounded=1;fillColor=#60a917;fontColor=#ffffff;strokeColor=#2D7600;fontSize=16;" parent="1" vertex="1">
                    <mxGeometry x="660" y="210" width="110" height="80" as="geometry"/>
                </mxCell>
                <mxCell id="5" value="Encrypt" style="rounded=1;fillColor=#60a917;fontColor=#ffffff;strokeColor=#2D7600;fontSize=16;" parent="1" vertex="1">
                    <mxGeometry x="440" y="450" width="110" height="80" as="geometry"/>
                </mxCell>
                <mxCell id="6" value="Pixhawk&#10;UART" style="rounded=1;fillColor=#76608a;fontColor=#ffffff;strokeColor=#432D57;fontSize=16;" parent="1" vertex="1">
                    <mxGeometry x="850" y="330" width="110" height="80" as="geometry"/>
                </mxCell>
                <mxCell id="7" value="UART&#10;Receive&#10;Driver" style="rounded=1;fillColor=#60a917;fontColor=#ffffff;strokeColor=#2D7600;fontSize=16;" parent="1" vertex="1">
                    <mxGeometry x="660" y="450" width="110" height="80" as="geometry"/>
                </mxCell>
                <mxCell id="9" value="Caption" style="swimlane;fontStyle=0;childLayout=stackLayout;horizontal=1;startSize=30;horizontalStack=0;resizeParent=1;resizeParentMax=0;resizeLast=0;collapsible=1;marginBottom=0;fontSize=16;" parent="1" vertex="1">
                    <mxGeometry x="180" y="470" width="210" height="120" as="geometry"/>
                </mxCell>
                <mxCell id="10" value="&lt;font style=&quot;font-size: 16px;&quot;&gt;Physical Connection&lt;/font&gt;" style="text;strokeColor=none;fillColor=none;align=left;verticalAlign=middle;spacingLeft=4;spacingRight=4;overflow=hidden;points=[[0,0.5],[1,0.5]];portConstraint=eastwest;rotatable=0;whiteSpace=wrap;html=1;" parent="9" vertex="1">
                    <mxGeometry y="30" width="210" height="30" as="geometry"/>
                </mxCell>
                <mxCell id="11" value="" style="edgeStyle=none;exitX=1;exitY=0;exitDx=0;exitDy=0;strokeWidth=3;fillColor=#76608a;strokeColor=#432D57;" parent="9" edge="1">
                    <mxGeometry relative="1" as="geometry">
                        <mxPoint x="160" y="44.58000000000004" as="sourcePoint"/>
                        <mxPoint x="200" y="44.58000000000004" as="targetPoint"/>
                    </mxGeometry>
                </mxCell>
                <mxCell id="12" value="&lt;font style=&quot;font-size: 16px;&quot;&gt;Dataport&lt;/font&gt;" style="text;strokeColor=none;fillColor=none;align=left;verticalAlign=middle;spacingLeft=4;spacingRight=4;overflow=hidden;points=[[0,0.5],[1,0.5]];portConstraint=eastwest;rotatable=0;whiteSpace=wrap;html=1;" parent="9" vertex="1">
                    <mxGeometry y="60" width="210" height="30" as="geometry"/>
                </mxCell>
                <mxCell id="57" value="Notification" style="text;strokeColor=none;fillColor=none;align=left;verticalAlign=middle;spacingLeft=4;spacingRight=4;overflow=hidden;points=[[0,0.5],[1,0.5]];portConstraint=eastwest;rotatable=0;fontSize=16;" parent="9" vertex="1">
                    <mxGeometry y="90" width="210" height="30" as="geometry"/>
                </mxCell>
                <mxCell id="13" value="" style="edgeStyle=none;exitX=1;exitY=0;exitDx=0;exitDy=0;strokeWidth=3;fillColor=#1ba1e2;strokeColor=#006EAF;" parent="9" edge="1">
                    <mxGeometry relative="1" as="geometry">
                        <mxPoint x="160" y="74.58000000000004" as="sourcePoint"/>
                        <mxPoint x="200" y="74.58000000000004" as="targetPoint"/>
                    </mxGeometry>
                </mxCell>
                <mxCell id="16" value="" style="edgeStyle=none;exitX=1;exitY=0;exitDx=0;exitDy=0;strokeWidth=3;fillColor=#60a917;strokeColor=#2D7600;" parent="9" edge="1">
                    <mxGeometry relative="1" as="geometry">
                        <mxPoint x="160" y="104.50000000000004" as="sourcePoint"/>
                        <mxPoint x="200" y="104.50000000000004" as="targetPoint"/>
                    </mxGeometry>
                </mxCell>
                <mxCell id="30" value="" style="endArrow=classic;html=1;exitX=1;exitY=0;exitDx=0;exitDy=0;entryX=0;entryY=1;entryDx=0;entryDy=0;strokeWidth=3;fillColor=#76608a;strokeColor=#432D57;" parent="1" source="2" target="3" edge="1">
                    <mxGeometry relative="1" as="geometry">
                        <mxPoint x="370" y="329" as="sourcePoint"/>
                        <mxPoint x="530" y="329" as="targetPoint"/>
                    </mxGeometry>
                </mxCell>
                <mxCell id="31" value="TX" style="edgeLabel;resizable=0;align=left;verticalAlign=bottom;fontSize=16;" parent="30" connectable="0" vertex="1">
                    <mxGeometry x="-1" relative="1" as="geometry"/>
                </mxCell>
                <mxCell id="32" value="RX" style="edgeLabel;resizable=0;align=right;verticalAlign=bottom;fontSize=16;" parent="30" connectable="0" vertex="1">
                    <mxGeometry x="1" relative="1" as="geometry"/>
                </mxCell>
                <mxCell id="33" value="" style="endArrow=classic;html=1;exitX=0;exitY=0;exitDx=0;exitDy=0;entryX=1;entryY=1;entryDx=0;entryDy=0;strokeWidth=3;fillColor=#76608a;strokeColor=#432D57;" parent="1" source="5" target="2" edge="1">
                    <mxGeometry relative="1" as="geometry">
                        <mxPoint x="370" y="340" as="sourcePoint"/>
                        <mxPoint x="450" y="300" as="targetPoint"/>
                    </mxGeometry>
                </mxCell>
                <mxCell id="34" value="TX" style="edgeLabel;resizable=0;align=left;verticalAlign=bottom;fontSize=16;" parent="33" connectable="0" vertex="1">
                    <mxGeometry x="-1" relative="1" as="geometry"/>
                </mxCell>
                <mxCell id="35" value="RX" style="edgeLabel;resizable=0;align=right;verticalAlign=bottom;fontSize=16;" parent="33" connectable="0" vertex="1">
                    <mxGeometry x="1" relative="1" as="geometry"/>
                </mxCell>
                <mxCell id="36" value="" style="endArrow=classic;html=1;exitX=1;exitY=1;exitDx=0;exitDy=0;entryX=0;entryY=0;entryDx=0;entryDy=0;strokeWidth=3;fillColor=#76608a;strokeColor=#432D57;" parent="1" source="4" target="6" edge="1">
                    <mxGeometry relative="1" as="geometry">
                        <mxPoint x="380" y="350" as="sourcePoint"/>
                        <mxPoint x="460" y="310" as="targetPoint"/>
                    </mxGeometry>
                </mxCell>
                <mxCell id="37" value="TX" style="edgeLabel;resizable=0;align=left;verticalAlign=bottom;fontSize=16;" parent="36" connectable="0" vertex="1">
                    <mxGeometry x="-1" relative="1" as="geometry"/>
                </mxCell>
                <mxCell id="38" value="RX" style="edgeLabel;resizable=0;align=right;verticalAlign=bottom;fontSize=16;" parent="36" connectable="0" vertex="1">
                    <mxGeometry x="1" relative="1" as="geometry"/>
                </mxCell>
                <mxCell id="39" value="" style="endArrow=classic;html=1;exitX=0;exitY=1;exitDx=0;exitDy=0;entryX=1;entryY=0;entryDx=0;entryDy=0;strokeWidth=3;fillColor=#76608a;strokeColor=#432D57;" parent="1" source="6" target="7" edge="1">
                    <mxGeometry relative="1" as="geometry">
                        <mxPoint x="390" y="360" as="sourcePoint"/>
                        <mxPoint x="470" y="320" as="targetPoint"/>
                    </mxGeometry>
                </mxCell>
                <mxCell id="40" value="TX" style="edgeLabel;resizable=0;align=left;verticalAlign=bottom;fontSize=16;" parent="39" connectable="0" vertex="1">
                    <mxGeometry x="-1" relative="1" as="geometry"/>
                </mxCell>
                <mxCell id="41" value="RX" style="edgeLabel;resizable=0;align=right;verticalAlign=bottom;fontSize=16;" parent="39" connectable="0" vertex="1">
                    <mxGeometry x="1" relative="1" as="geometry"/>
                </mxCell>
                <mxCell id="42" value="" style="endArrow=classic;html=1;strokeWidth=3;fillColor=#60a917;strokeColor=#2D7600;exitX=1;exitY=0.25;exitDx=0;exitDy=0;entryX=0;entryY=0.25;entryDx=0;entryDy=0;" parent="1" source="3" target="4" edge="1">
                    <mxGeometry relative="1" as="geometry">
                        <mxPoint x="530" y="440" as="sourcePoint"/>
                        <mxPoint x="630" y="440" as="targetPoint"/>
                    </mxGeometry>
                </mxCell>
                <mxCell id="43" value="DataReady" style="edgeLabel;resizable=0;align=center;verticalAlign=middle;fontSize=16;labelBackgroundColor=none;" parent="42" connectable="0" vertex="1">
                    <mxGeometry relative="1" as="geometry"/>
                </mxCell>
                <mxCell id="46" value="" style="endArrow=classic;html=1;strokeWidth=3;fillColor=#60a917;strokeColor=#2D7600;exitX=0;exitY=0.75;exitDx=0;exitDy=0;entryX=1;entryY=0.75;entryDx=0;entryDy=0;" parent="1" source="7" target="5" edge="1">
                    <mxGeometry relative="1" as="geometry">
                        <mxPoint x="560" y="240" as="sourcePoint"/>
                        <mxPoint x="670" y="240" as="targetPoint"/>
                    </mxGeometry>
                </mxCell>
                <mxCell id="47" value="DataReady" style="edgeLabel;resizable=0;align=center;verticalAlign=middle;fontSize=16;labelBackgroundColor=none;" parent="46" connectable="0" vertex="1">
                    <mxGeometry relative="1" as="geometry"/>
                </mxCell>
                <mxCell id="48" value="" style="endArrow=classic;html=1;strokeWidth=3;fillColor=#1ba1e2;strokeColor=#006EAF;exitX=1;exitY=0.5;exitDx=0;exitDy=0;entryX=0;entryY=0.5;entryDx=0;entryDy=0;" parent="1" source="3" target="4" edge="1">
                    <mxGeometry relative="1" as="geometry">
                        <mxPoint x="570" y="250" as="sourcePoint"/>
                        <mxPoint x="670" y="250" as="targetPoint"/>
                    </mxGeometry>
                </mxCell>
                <mxCell id="49" value="Data" style="edgeLabel;resizable=0;align=center;verticalAlign=middle;fontSize=16;labelBackgroundColor=none;" parent="48" connectable="0" vertex="1">
                    <mxGeometry relative="1" as="geometry"/>
                </mxCell>
                <mxCell id="50" value="" style="endArrow=classic;html=1;strokeWidth=3;fillColor=#1ba1e2;strokeColor=#006EAF;exitX=0;exitY=0.5;exitDx=0;exitDy=0;entryX=1;entryY=0.5;entryDx=0;entryDy=0;" parent="1" source="7" target="5" edge="1">
                    <mxGeometry relative="1" as="geometry">
                        <mxPoint x="560" y="260" as="sourcePoint"/>
                        <mxPoint x="670" y="260" as="targetPoint"/>
                    </mxGeometry>
                </mxCell>
                <mxCell id="51" value="Data" style="edgeLabel;resizable=0;align=center;verticalAlign=middle;fontSize=16;labelBackgroundColor=none;" parent="50" connectable="0" vertex="1">
                    <mxGeometry relative="1" as="geometry"/>
                </mxCell>
                <mxCell id="52" value="" style="endArrow=classic;html=1;strokeWidth=3;fillColor=#60a917;strokeColor=#2D7600;entryX=1;entryY=0.75;entryDx=0;entryDy=0;exitX=0;exitY=0.75;exitDx=0;exitDy=0;" parent="1" source="4" target="3" edge="1">
                    <mxGeometry relative="1" as="geometry">
                        <mxPoint x="680" y="310" as="sourcePoint"/>
                        <mxPoint x="680" y="270" as="targetPoint"/>
                    </mxGeometry>
                </mxCell>
                <mxCell id="53" value="Ack" style="edgeLabel;resizable=0;align=center;verticalAlign=middle;fontSize=16;labelBackgroundColor=none;" parent="52" connectable="0" vertex="1">
                    <mxGeometry relative="1" as="geometry"/>
                </mxCell>
                <mxCell id="54" value="" style="endArrow=classic;html=1;strokeWidth=3;fillColor=#60a917;strokeColor=#2D7600;entryX=0;entryY=0.25;entryDx=0;entryDy=0;exitX=1;exitY=0.25;exitDx=0;exitDy=0;" parent="1" source="5" target="7" edge="1">
                    <mxGeometry relative="1" as="geometry">
                        <mxPoint x="670" y="280" as="sourcePoint"/>
                        <mxPoint x="560" y="280" as="targetPoint"/>
                    </mxGeometry>
                </mxCell>
                <mxCell id="55" value="Ack" style="edgeLabel;resizable=0;align=center;verticalAlign=middle;fontSize=16;labelBackgroundColor=none;" parent="54" connectable="0" vertex="1">
                    <mxGeometry relative="1" as="geometry"/>
                </mxCell>
            </root>
        </mxGraphModel>
    </diagram>
</mxfile>